<svg width="39" height="29" viewBox="0 0 39 29" fill="none" xmlns="http://www.w3.org/2000/svg">
<path fill-rule="evenodd" clip-rule="evenodd" d="M27.4769 6.356C27.4769 6.65048 27.2381 6.8892 26.9437 6.8892H12.0564C11.7619 6.8892 11.5232 6.65048 11.5232 6.356C11.5232 6.06152 11.7619 5.82279 12.0564 5.82279H26.9436C27.2381 5.82279 27.4769 6.06152 27.4769 6.356ZM38.0019 16.118C37.8924 17.6057 36.7542 18.7276 35.3546 18.7276H3.64535C2.24569 18.7276 1.10761 17.6057 0.997923 16.118C0.580196 10.4642 0.581948 6.46073 1.00348 3.87873C1.17373 2.83503 1.90665 2.13379 2.82734 2.13379H36.1725C37.093 2.13379 37.826 2.83503 37.9964 3.87873C38.418 6.46073 38.4198 10.4642 38.0019 16.118ZM33.1919 14.6524C33.1919 14.2849 32.8929 13.9859 32.5254 13.9859H6.47461C6.10708 13.9859 5.8081 14.2849 5.8081 14.6524V17.6612H33.1919V14.6524ZM36.944 4.05058C36.88 3.65829 36.6395 3.2002 36.1726 3.2002H2.82742C2.36041 3.2002 2.12001 3.65829 2.05595 4.0505C1.64813 6.54871 1.64995 10.4703 2.06151 16.0395C2.13068 16.9792 2.7968 17.6612 3.64535 17.6612H4.74169V14.6524C4.74169 13.6969 5.51911 12.9195 6.47461 12.9195H32.5254C33.4809 12.9195 34.2583 13.6969 34.2583 14.6524V17.6612H35.3547C36.2032 17.6612 36.8693 16.9792 36.9385 16.0396C37.35 10.4703 37.3519 6.54871 36.944 4.05058ZM19.5 21.1651C19.2055 21.1651 18.9668 21.4038 18.9668 21.6983V26.3324C18.9668 26.6269 19.2055 26.8656 19.5 26.8656C19.7945 26.8656 20.0332 26.6269 20.0332 26.3324V21.6983C20.0332 21.4038 19.7945 21.1651 19.5 21.1651ZM14.9201 21.1656C14.6259 21.1776 14.3972 21.426 14.4092 21.7202C14.4754 23.3341 14.0168 24.8955 13.1508 26.0042C12.9695 26.2362 13.0107 26.5713 13.2428 26.7525C13.3402 26.8286 13.4558 26.8655 13.5706 26.8655C13.7291 26.8655 13.8861 26.7951 13.9912 26.6605C15.0104 25.3557 15.5511 23.5391 15.4747 21.6764C15.4627 21.3822 15.2138 21.1539 14.9201 21.1656ZM10.1477 21.1659C9.85405 21.1499 9.60276 21.3766 9.58752 21.6706C9.50335 23.286 8.89916 24.8158 7.92995 25.8677C7.73038 26.0843 7.74416 26.4216 7.96072 26.6211C8.06325 26.7156 8.19274 26.7623 8.32185 26.7623C8.46566 26.7623 8.60902 26.7045 8.71406 26.5904C9.84894 25.3587 10.5555 23.5858 10.6523 21.7262C10.6677 21.432 10.4417 21.1812 10.1477 21.1659ZM24.5909 21.7202C24.6029 21.426 24.3742 21.1776 24.08 21.1656C23.785 21.1538 23.5374 21.3823 23.5254 21.6764C23.4489 23.539 23.9897 25.3557 25.009 26.6606C25.1142 26.7953 25.271 26.8656 25.4295 26.8656C25.5443 26.8656 25.6599 26.8287 25.7574 26.7526C25.9895 26.5713 26.0307 26.2362 25.8494 26.0042C24.9833 24.8955 24.5247 23.334 24.5909 21.7202ZM29.4126 21.6706C29.3973 21.3765 29.1463 21.1499 28.8525 21.1659C28.5584 21.1812 28.3324 21.432 28.3477 21.726C28.4446 23.5857 29.1512 25.3586 30.286 26.5902C30.3911 26.7043 30.5345 26.7621 30.6782 26.7621C30.8073 26.7621 30.9369 26.7155 31.0394 26.621C31.2559 26.4215 31.2697 26.0841 31.0701 25.8676C30.1011 24.8159 29.4969 23.286 29.4126 21.6706ZM32.428 5.63229C32.0295 5.63229 31.7044 5.95739 31.7044 6.35592C31.7044 6.75453 32.0295 7.07955 32.428 7.07955C32.8266 7.07955 33.1517 6.75445 33.1517 6.35592C33.1517 5.95739 32.8266 5.63229 32.428 5.63229Z" fill="white"/>
</svg>
