<svg width="39" height="39" viewBox="0 0 39 39" fill="none" xmlns="http://www.w3.org/2000/svg">
<path d="M36.5625 13H35.75V8.12503C35.75 6.33263 34.2924 4.875 32.4999 4.875C30.7075 4.875 29.25 6.33255 29.25 8.12343L29.2484 8.93755C29.2476 9.38666 29.6102 9.75084 30.0593 9.75168C30.0601 9.75168 30.0601 9.75168 30.0601 9.75168C30.5092 9.75168 30.8726 9.3891 30.8734 8.94075L30.875 8.1251C30.875 7.22932 31.6042 6.50013 32.4999 6.50013C33.3957 6.50013 34.125 7.22917 34.125 8.12503V13H2.4375C1.09337 13 0 14.0934 0 15.4375C0 16.4954 0.681281 17.3888 1.62497 17.7253V20.3125C1.62497 24.042 3.57299 27.3187 6.49997 29.1987V33.3126C6.49997 33.7616 6.86339 34.125 7.3125 34.125H8.93747C9.24536 34.125 9.52621 33.9513 9.66431 33.6759L11.0936 30.8179C11.4534 30.8551 11.8181 30.875 12.1875 30.875H26.8125C27.1819 30.875 27.5466 30.8552 27.9064 30.8179L29.3357 33.6759C29.4738 33.9513 29.7546 34.125 30.0625 34.125H31.6875C32.1366 34.125 32.5 33.7616 32.5 33.3125V29.1987C35.427 27.3187 37.375 24.0419 37.375 20.3124V17.7253C38.3187 17.3888 39 16.4954 39 15.4375C39 14.0934 37.9066 13 36.5625 13ZM9.75 14.625H17.875V22.6032L9.75 21.2496V14.625ZM1.62497 15.4375C1.62497 14.9892 1.98923 14.625 2.4375 14.625H8.12503V16.25H2.4375C1.98923 16.25 1.62497 15.8858 1.62497 15.4375ZM8.43527 32.5H8.12503V30.06C8.5477 30.2369 8.98782 30.3775 9.4361 30.4988L8.43527 32.5ZM30.875 32.5H30.5647L29.5639 30.4988C30.0121 30.3776 30.4523 30.2369 30.875 30.0601V32.5ZM35.75 20.3125C35.75 25.2407 31.7407 29.25 26.8125 29.25H12.1875C7.25933 29.25 3.25003 25.2407 3.25003 20.3125V17.875H8.12503V21.9375C8.12503 22.335 8.41227 22.6739 8.80425 22.7389L18.5543 24.3639C18.5987 24.371 18.6431 24.375 18.6876 24.375C18.8787 24.375 19.0652 24.3076 19.2128 24.1822C19.3953 24.0283 19.5001 23.8014 19.5001 23.5626V17.875H35.7501V20.3125H35.75ZM36.5625 16.25H19.5V14.625H36.5625C37.0108 14.625 37.375 14.9892 37.375 15.4375C37.375 15.8858 37.0108 16.25 36.5625 16.25Z" fill="white"/>
</svg>
