<svg width="20" height="20" viewBox="0 0 20 20" fill="none" xmlns="http://www.w3.org/2000/svg">
<path d="M19.5009 15.221C18.8809 14.701 15.2445 12.3983 14.6401 12.504C14.3564 12.5544 14.1393 12.7963 13.5583 13.4894C13.2896 13.8305 12.9946 14.15 12.6758 14.4449C12.0918 14.3039 11.5266 14.0943 10.9917 13.8207C8.89424 12.7995 7.19975 11.1045 6.1792 9.00672C5.90554 8.47188 5.696 7.9066 5.55493 7.32262C5.84984 7.00388 6.16935 6.70881 6.51048 6.44013C7.20285 5.85914 7.44546 5.64348 7.49583 5.35831C7.60153 4.75248 5.29671 1.11755 4.77885 0.497542C4.56178 0.240742 4.36457 0.0683594 4.11202 0.0683594C3.37993 0.0683594 0.0684814 4.16298 0.0684814 4.6936C0.0684814 4.73688 0.139421 8.99962 5.52301 14.4768C11.0002 19.8604 15.263 19.9314 15.3063 19.9314C15.8369 19.9314 19.9315 16.6199 19.9315 15.8878C19.9315 15.6353 19.7591 15.4381 19.5009 15.221Z" fill="#9B804E"/>
<path d="M15.137 8.97262H16.5069C16.5052 7.51988 15.9274 6.1271 14.9002 5.09986C13.8729 4.07262 12.4801 3.4948 11.0274 3.49316V4.86303C12.117 4.86412 13.1617 5.29744 13.9321 6.0679C14.7026 6.83836 15.1359 7.88302 15.137 8.97262Z" fill="#9B804E"/>
<path d="M18.5617 8.97247H19.9315C19.9288 6.61179 18.9898 4.34857 17.3206 2.67932C15.6513 1.01006 13.3881 0.0710785 11.0274 0.0683594V1.43822C13.0249 1.44058 14.9399 2.23512 16.3523 3.64755C17.7648 5.05999 18.5593 6.97499 18.5617 8.97247Z" fill="#9B804E"/>
</svg>
