<svg width="23" height="40" viewBox="0 0 23 40" fill="none" xmlns="http://www.w3.org/2000/svg">
<path d="M23 13.4136V2.11127C22.9993 1.55153 22.7745 1.01491 22.3749 0.619109C21.9753 0.223312 21.4336 0.00066222 20.8684 0H2.13156C1.56644 0.00066222 1.02466 0.223312 0.625058 0.619109C0.225458 1.01491 0.000668583 1.55153 0 2.11127V13.4136C0.000190597 13.7087 0.063042 14.0004 0.184472 14.2698C0.305902 14.5393 0.483196 14.7804 0.704836 14.9775C0.483196 15.1747 0.305902 15.4158 0.184472 15.6852C0.063042 15.9546 0.000190597 16.2464 0 16.5414V35.6617C0.000668583 36.2215 0.225458 36.7581 0.625058 37.1539C1.02466 37.5497 1.56644 37.7723 2.13156 37.773H2.42114V39.4526C2.42114 39.5978 2.47936 39.737 2.583 39.8397C2.68663 39.9423 2.8272 40 2.97376 40H6.92109C7.06766 40 7.20822 39.9423 7.31186 39.8397C7.4155 39.737 7.47372 39.5978 7.47372 39.4526V37.773H15.5263V39.4526C15.5263 39.5978 15.5845 39.737 15.6881 39.8397C15.7918 39.9423 15.9323 40 16.0789 40H20.0262C20.1728 40 20.3134 39.9423 20.417 39.8397C20.5206 39.737 20.5789 39.5978 20.5789 39.4526V37.773H20.8684C21.4336 37.7723 21.9753 37.5497 22.3749 37.1539C22.7745 36.7581 22.9993 36.2215 23 35.6617V16.5414C22.9998 16.2464 22.937 15.9546 22.8155 15.6852C22.6941 15.4158 22.5168 15.1747 22.2952 14.9775C22.5168 14.7804 22.6941 14.5393 22.8155 14.2698C22.937 14.0004 22.9998 13.7087 23 13.4136ZM6.36847 38.9053H3.52639V37.773H6.36847V38.9053ZM19.4736 38.9053H16.6315V37.773H19.4736V38.9053ZM21.8947 16.5414V35.6617C21.8944 35.9312 21.7862 36.1896 21.5938 36.3802C21.4014 36.5707 21.1405 36.6779 20.8684 36.6783H2.13156C1.85947 36.6779 1.59862 36.5707 1.40622 36.3802C1.21382 36.1896 1.10559 35.9312 1.10525 35.6617V16.5414C1.10559 16.2719 1.21382 16.0136 1.40622 15.823C1.59862 15.6324 1.85947 15.5252 2.13156 15.5249H20.8684C21.1405 15.5252 21.4014 15.6324 21.5938 15.823C21.7862 16.0136 21.8944 16.2719 21.8947 16.5414ZM2.13156 14.4302C1.85947 14.4298 1.59862 14.3226 1.40622 14.132C1.21382 13.9415 1.10559 13.6831 1.10525 13.4136V2.11127C1.10559 1.84177 1.21382 1.5834 1.40622 1.39284C1.59862 1.20227 1.85947 1.09506 2.13156 1.09473H20.8684C21.1405 1.09506 21.4014 1.20227 21.5938 1.39284C21.7862 1.5834 21.8944 1.84177 21.8947 2.11127V13.4136C21.8944 13.6831 21.7862 13.9415 21.5938 14.132C21.4014 14.3226 21.1405 14.4298 20.8684 14.4302H2.13156Z" fill="white"/>
<path d="M19.3 4H16.7C16.5143 4 16.3363 4.0602 16.205 4.16737C16.0738 4.27453 16 4.41988 16 4.57143V11.4286C16 11.5801 16.0738 11.7255 16.205 11.8326C16.3363 11.9398 16.5143 12 16.7 12H19.3C19.4857 12 19.6637 11.9398 19.795 11.8326C19.9263 11.7255 20 11.5801 20 11.4286V4.57143C20 4.41988 19.9263 4.27453 19.795 4.16737C19.6637 4.0602 19.4857 4 19.3 4ZM18.6 10.8571H17.4V5.14286H18.6V10.8571Z" fill="white"/>
<path d="M16.7 26H19.3C19.4857 26 19.6637 25.9398 19.795 25.8326C19.9263 25.7255 20 25.5801 20 25.4286V18.5714C20 18.4199 19.9263 18.2745 19.795 18.1674C19.6637 18.0602 19.4857 18 19.3 18H16.7C16.5143 18 16.3363 18.0602 16.205 18.1674C16.0738 18.2745 16 18.4199 16 18.5714V25.4286C16 25.5801 16.0738 25.7255 16.205 25.8326C16.3363 25.9398 16.5143 26 16.7 26ZM17.4 19.1429H18.6V24.8571H17.4V19.1429Z" fill="white"/>
</svg>
