<svg width="32" height="30" viewBox="0 0 32 30" fill="none" xmlns="http://www.w3.org/2000/svg">
<path d="M29.1942 21.0336C28.7414 20.7999 28.1729 20.9553 27.9244 21.3807C27.6757 21.8062 27.8411 22.3406 28.2937 22.5742C29.4075 23.1494 30.0464 23.787 30.0464 24.3236C30.0464 24.9799 29.0571 25.9971 26.2804 26.8838C23.5373 27.7599 19.8714 28.2423 15.9582 28.2423C12.045 28.2423 8.37919 27.7599 5.63606 26.8838C2.85939 25.9972 1.87011 24.9799 1.87011 24.3236C1.87011 23.787 2.50893 23.1494 3.62277 22.5742C4.0754 22.3405 4.24071 21.8061 3.99205 21.3807C3.74339 20.9553 3.17506 20.7998 2.72231 21.0336C1.48044 21.6749 0 22.7662 0 24.3236C0 25.5174 0.873464 27.2194 5.03445 28.5482C7.96627 29.4845 11.8457 30.0001 15.9582 30.0001C20.0707 30.0001 23.9502 29.4845 26.882 28.5482C31.043 27.2194 31.9165 25.5174 31.9165 24.3236C31.9165 22.7662 30.436 21.6749 29.1942 21.0336Z" fill="#9B804E"/>
<path d="M8.89864 25.6132C10.7968 26.1172 13.3039 26.3948 15.9582 26.3948C18.6124 26.3948 21.1195 26.1173 23.0177 25.6132C25.3399 24.9966 26.5174 24.104 26.5174 22.9604C26.5174 21.8167 25.3399 20.9242 23.0177 20.3076C22.5022 20.1707 21.9415 20.0507 21.3454 19.9482C21.0217 20.4739 20.6825 21.0151 20.3279 21.5718C20.9877 21.6648 21.6071 21.7789 22.1697 21.9136C23.8787 22.3228 24.503 22.7834 24.6314 22.9604C24.503 23.1376 23.8787 23.5982 22.1697 24.0073C20.5521 24.3945 18.471 24.6154 16.279 24.6352C16.1729 24.6425 16.0659 24.6467 15.9582 24.6467C15.8504 24.6467 15.7435 24.6425 15.6373 24.6352C13.4453 24.6154 11.3641 24.3946 9.74655 24.0073C8.03752 23.5982 7.41322 23.1375 7.28486 22.9604C7.41322 22.7834 8.03758 22.3228 9.74661 21.9136C10.3091 21.7789 10.9286 21.6648 11.5884 21.5718C11.2338 21.0151 10.8946 20.4739 10.5709 19.9482C9.97482 20.0507 9.4141 20.1707 8.89864 20.3076C6.57641 20.9242 5.39893 21.8167 5.39893 22.9604C5.39893 24.104 6.57641 24.9966 8.89864 25.6132Z" fill="#9B804E"/>
<path d="M15.9584 22.8887C16.7907 22.8887 17.5468 22.49 17.9811 21.8222C21.0237 17.1431 24.6506 10.9764 24.6506 8.17025C24.6506 3.66516 20.7513 0 15.9584 0C11.1654 0 7.26611 3.66516 7.26611 8.17025C7.26611 10.9764 10.8931 17.1431 13.9357 21.8222C14.3699 22.49 15.126 22.8887 15.9584 22.8887ZM12.4646 7.60928C12.4646 5.79856 14.0319 4.32539 15.9584 4.32539C17.8848 4.32539 19.4522 5.79856 19.4522 7.60928C19.4522 9.42006 17.8848 10.8932 15.9584 10.8932C14.0319 10.8932 12.4646 9.42012 12.4646 7.60928Z" fill="#9B804E"/>
</svg>
