<svg width="21" height="28" viewBox="0 0 21 28" fill="none" xmlns="http://www.w3.org/2000/svg">
<path d="M10.3425 0.643555C4.67807 0.643555 0.0684814 5.25374 0.0684814 10.9218C0.0684814 18.9755 9.3767 27.291 9.77282 27.6403C9.93606 27.7843 10.1393 27.8557 10.3425 27.8557C10.5456 27.8557 10.7488 27.7843 10.9121 27.6414C11.3082 27.291 20.6164 18.9755 20.6164 10.9218C20.6164 5.25374 16.0068 0.643555 10.3425 0.643555ZM10.3425 16.5173C7.19519 16.5173 4.63469 13.9741 4.63469 10.8481C4.63469 7.72211 7.19519 5.17891 10.3425 5.17891C13.4897 5.17891 16.0502 7.72211 16.0502 10.8481C16.0502 13.9741 13.4897 16.5173 10.3425 16.5173Z" fill="#9B804E"/>
</svg>
