<svg width="27" height="20" viewBox="0 0 27 20" fill="none" xmlns="http://www.w3.org/2000/svg">
<path d="M17.6856 11.0928L15.4829 13.3029C14.5896 14.1993 13.018 14.2186 12.1054 13.3029L9.90257 11.0928L1.99103 19.03C2.28552 19.1662 2.61022 19.2474 2.95542 19.2474H24.6329C24.9781 19.2474 25.3026 19.1663 25.597 19.0301L17.6856 11.0928Z" fill="#9B804E"/>
<path d="M24.6328 0.751953H2.95531C2.61012 0.751953 2.28542 0.833218 1.99103 0.969395L10.4451 9.45149C10.4456 9.45205 10.4463 9.45216 10.4469 9.45272C10.4474 9.45329 10.4475 9.45406 10.4475 9.45406L13.1964 12.212C13.4884 12.504 14.0998 12.504 14.3918 12.212L17.1401 9.45452C17.1401 9.45452 17.1407 9.45329 17.1413 9.45272C17.1413 9.45272 17.1425 9.45205 17.1431 9.45149L25.5969 0.969344C25.3025 0.833115 24.9779 0.751953 24.6328 0.751953Z" fill="#9B804E"/>
<path d="M0.889587 2.04688C0.737228 2.35498 0.643738 2.69699 0.643738 3.06335V16.9328C0.643738 17.2992 0.737125 17.6412 0.889535 17.9493L8.8148 9.99834L0.889587 2.04688Z" fill="#9B804E"/>
<path d="M26.6985 2.04883L18.7733 10.0004L26.6985 17.9514C26.8508 17.6433 26.9443 17.3013 26.9443 16.9349V3.06541C26.9443 2.69895 26.8508 2.35694 26.6985 2.04883Z" fill="#9B804E"/>
</svg>
