<svg width="34" height="34" viewBox="0 0 34 34" fill="none" xmlns="http://www.w3.org/2000/svg">
<path d="M29.8237 4.17871H4.17632C2.03092 4.18211 0.293522 5.92064 0.292389 8.06604V22.507C0.293522 24.6524 2.03092 26.3909 4.17632 26.3932H13.5909L10.2 28.1918C9.19472 28.6587 9.89399 30.1966 10.9095 29.7365C10.9673 29.6923 16.9297 26.553 17 26.5065L22.9987 29.6946C23.1211 29.7603 23.2571 29.7943 23.3965 29.7943C24.2635 29.8294 24.5809 28.5714 23.8 28.1918L20.4091 26.3932H29.8237C31.9679 26.3909 33.7053 24.6524 33.7076 22.5081V8.06604C33.7065 5.92064 31.9691 4.18211 29.8237 4.17871ZM32.0076 22.5058C32.0076 23.7128 31.0307 24.6909 29.8237 24.692H4.17632C2.97046 24.6909 1.99352 23.7128 1.99239 22.507V8.06604C1.99239 6.85904 2.96932 5.88098 4.17632 5.87984H29.8237C31.0295 5.88098 32.0065 6.85904 32.0076 8.06491V22.5058Z" fill="white"/>
<path d="M15.5017 11.3604H9.10293C8.63373 11.3604 8.25293 11.7412 8.25293 12.2104C8.25293 12.6796 8.63373 13.0604 9.10293 13.0604H11.4523V18.3598C11.4523 18.829 11.8331 19.2098 12.3023 19.2098C12.7715 19.2098 13.1523 18.829 13.1523 18.3598V13.0604H15.5017C16.6135 13.0558 16.6135 11.366 15.5017 11.3604Z" fill="white"/>
<path d="M25.2699 11.4468C24.8483 11.2405 24.3394 11.4162 24.1332 11.8378L21.8982 16.4187L19.6644 11.8355C19.1714 10.8382 17.6482 11.5794 18.1333 12.5835L21.1344 18.733C21.4268 19.3507 22.3686 19.3552 22.6621 18.733L25.6609 12.5835C25.8672 12.1619 25.6915 11.6531 25.2699 11.4468Z" fill="white"/>
</svg>
