<svg width="39" height="39" viewBox="0 0 39 39" fill="none" xmlns="http://www.w3.org/2000/svg">
<path d="M30.9557 0H8.04429C6.20968 0 4.71707 1.49261 4.71707 3.32721V34.3251C4.71707 35.1957 5.28228 35.9363 6.0648 36.2006V37.0205C6.0648 38.112 6.95279 39 8.04429 39H30.9557C32.0472 39 32.9352 38.112 32.9352 37.0205V36.2006C33.7177 35.9363 34.2829 35.1957 34.2829 34.3251V3.32721C34.2829 1.49261 32.7903 0 30.9557 0ZM8.04429 1.2635H30.9557C32.0937 1.2635 33.0194 2.18931 33.0194 3.32721V8.08639H5.98057V3.32721C5.98057 2.18931 6.90629 1.2635 8.04429 1.2635ZM30.9557 37.7365H8.04429C7.64948 37.7365 7.3283 37.4153 7.3283 37.0205V36.3045H31.6717V37.0205C31.6717 37.4153 31.3505 37.7365 30.9557 37.7365ZM32.3035 35.041H6.69655C6.30175 35.041 5.98057 34.7199 5.98057 34.3251V9.34989H33.0194V34.3251C33.0194 34.7199 32.6983 35.041 32.3035 35.041Z" fill="white"/>
<path d="M19.5 11.4561C13.5781 11.4561 8.76025 16.2739 8.76025 22.1958C8.76025 28.1177 13.5781 32.9355 19.5 32.9355C25.4219 32.9355 30.2397 28.1177 30.2397 22.1958C30.2397 16.2739 25.4219 11.4561 19.5 11.4561ZM19.5 31.672C14.2748 31.672 10.0238 27.421 10.0238 22.1958C10.0238 16.9706 14.2748 12.7196 19.5 12.7196C24.7252 12.7196 28.9762 16.9706 28.9762 22.1958C28.9762 27.421 24.7252 31.672 19.5 31.672Z" fill="white"/>
<path d="M23.5432 6.65428C24.6347 6.65428 25.5227 5.76629 25.5227 4.67479C25.5227 3.5833 24.6347 2.69531 23.5432 2.69531C22.4517 2.69531 21.5637 3.5833 21.5637 4.67479C21.5637 5.76629 22.4517 6.65428 23.5432 6.65428ZM23.5432 3.95881C23.938 3.95881 24.2592 4.27999 24.2592 4.67479C24.2592 5.0696 23.938 5.39078 23.5432 5.39078C23.1484 5.39078 22.8272 5.0696 22.8272 4.67479C22.8272 4.27999 23.1484 3.95881 23.5432 3.95881Z" fill="white"/>
<path d="M28.9341 6.65428C30.0256 6.65428 30.9136 5.76629 30.9136 4.67479C30.9136 3.5833 30.0256 2.69531 28.9341 2.69531C27.8426 2.69531 26.9547 3.5833 26.9547 4.67479C26.9547 5.76629 27.8426 6.65428 28.9341 6.65428ZM28.9341 3.95881C29.3289 3.95881 29.6501 4.27999 29.6501 4.67479C29.6501 5.0696 29.3289 5.39078 28.9341 5.39078C28.5393 5.39078 28.2181 5.0696 28.2181 4.67479C28.2181 4.27999 28.5393 3.95881 28.9341 3.95881Z" fill="white"/>
<path d="M9.39201 6.65428H18.1523C18.8722 6.65428 19.4579 6.0686 19.4579 5.34866V4.00093C19.4579 3.28099 18.8722 2.69531 18.1523 2.69531H9.39201C8.67207 2.69531 8.0864 3.28099 8.0864 4.00093V5.34866C8.0864 6.0686 8.67207 6.65428 9.39201 6.65428ZM9.34989 4.00093C9.34989 3.97768 9.36885 3.95881 9.39201 3.95881H18.1523C18.1754 3.95881 18.1944 3.97768 18.1944 4.00093V5.34866C18.1944 5.37191 18.1754 5.39078 18.1523 5.39078H9.39201C9.36885 5.39078 9.34989 5.37191 9.34989 5.34866V4.00093Z" fill="white"/>
<path d="M19.5 14.1514C15.0644 14.1514 11.4557 17.76 11.4557 22.1956C11.4557 26.6313 15.0644 30.2399 19.5 30.2399C23.9356 30.2399 27.5443 26.6313 27.5443 22.1956C27.5443 17.76 23.9356 14.1514 19.5 14.1514ZM19.5 28.9764C15.761 28.9764 12.7192 25.9346 12.7192 22.1956C12.7192 18.4567 15.761 15.4149 19.5 15.4149C23.2389 15.4149 26.2808 18.4567 26.2808 22.1956C26.2808 25.9346 23.2389 28.9764 19.5 28.9764Z" fill="white"/>
<path d="M19.5 16.8467C19.151 16.8467 18.8683 17.1295 18.8683 17.4784C18.8683 17.8273 19.151 18.1102 19.5 18.1102C21.7527 18.1102 23.5853 19.9428 23.5853 22.1955C23.5853 22.5444 23.8681 22.8272 24.2171 22.8272C24.566 22.8272 24.8488 22.5444 24.8488 22.1955C24.8488 19.2461 22.4493 16.8467 19.5 16.8467Z" fill="white"/>
</svg>
