<svg width="30" height="30" viewBox="0 0 30 30" fill="none" xmlns="http://www.w3.org/2000/svg">
<g clip-path="url(#clip0_124_1126)">
<path d="M15 0C6.717 0 0 6.717 0 15C0 23.283 6.717 30 15 30C23.283 30 30 23.283 30 15C30 6.717 23.283 0 15 0ZM15.3179 23.7334C15.3177 23.7334 15.3181 23.7334 15.3179 23.7334H15.3143C13.8116 23.7328 12.3351 23.356 11.0239 22.641L6.26472 23.8891L7.53845 19.2382C6.7527 17.8773 6.33934 16.3332 6.34003 14.7514C6.34209 9.80301 10.3695 5.77721 15.3179 5.77721C17.7193 5.77812 19.9736 6.71288 21.6685 8.40912C23.3636 10.1056 24.2965 12.3605 24.2956 14.7585C24.2935 19.7072 20.2657 23.7334 15.3179 23.7334Z" fill="#9B804E"/>
<path d="M15.3207 7.29297C11.2047 7.29297 7.8573 10.639 7.85547 14.752C7.85501 16.1615 8.2496 17.5341 8.99645 18.7217L9.17383 19.0039L8.41989 21.7567L11.2441 21.016L11.5167 21.1776C12.6622 21.8574 13.9755 22.217 15.3145 22.2174H15.3175C19.4303 22.2174 22.7776 18.8712 22.7795 14.7579C22.7802 12.7646 22.0047 10.8905 20.5959 9.48062C19.1872 8.07071 17.3136 7.29366 15.3207 7.29297ZM19.7097 17.9591C19.5227 18.4828 18.6266 18.9609 18.1957 19.0255C17.8091 19.0831 17.3202 19.1072 16.7828 18.9366C16.4568 18.8332 16.0391 18.6952 15.5038 18.4642C13.2536 17.4929 11.784 15.2278 11.6718 15.0782C11.5597 14.9285 10.7559 13.8621 10.7559 12.7582C10.7559 11.6545 11.3354 11.1119 11.5409 10.8876C11.7467 10.663 11.9898 10.6069 12.1392 10.6069C12.2887 10.6069 12.4384 10.6083 12.5691 10.6147C12.7068 10.6216 12.8918 10.5623 13.0737 10.9997C13.2607 11.4488 13.7094 12.5524 13.7654 12.6646C13.8215 12.777 13.8588 12.9079 13.7842 13.0576C13.7094 13.2073 13.4608 13.5302 13.2234 13.8246C13.1239 13.9479 12.9941 14.0578 13.125 14.2823C13.2557 14.5066 13.7061 15.2411 14.3729 15.8358C15.2298 16.5998 15.9526 16.8364 16.1769 16.9488C16.401 17.061 16.5319 17.0422 16.6628 16.8927C16.7935 16.743 17.2236 16.2379 17.3731 16.0134C17.5225 15.7888 17.6722 15.8264 17.8777 15.9012C18.0835 15.9758 19.1863 16.5185 19.4106 16.6307C19.6349 16.743 19.7843 16.7991 19.8404 16.8927C19.8967 16.9863 19.8967 17.4352 19.7097 17.9591Z" fill="#9B804E"/>
</g>
<defs>
<clipPath id="clip0_124_1126">
<rect width="30" height="30" fill="white"/>
</clipPath>
</defs>
</svg>
